<svg enable-background="new 0 0 1024 1024" viewBox="0 0 1024 1024" xmlns="http://www.w3.org/2000/svg"><g fill="#0f4c81"><path d="m512 0c-282.88 0-512 229.12-512 512 0 224.32 144 414.72 344.64 483.84v-171.2c-155.52-19.2-275.84-152-275.84-312.64 0-134.08 83.84-248.64 201.92-294.08l29.12 115.84c-66.56 31.68-112.64 99.52-112.64 178.24 0 95.36 67.52 174.72 157.44 192.96v-505.6c12.8-1.6 25.92-2.56 39.36-2.56 174.08 0 315.2 141.12 315.2 315.2 0 160.64-120.32 293.44-275.84 312.64v191.68c28.8 5.12 58.56 7.68 88.64 7.68 282.88 0 512-229.12 512-512s-229.12-512-512-512z"/><circle cx="512" cy="512" r="39.38"/></g></svg>
