<svg enable-background="new 0 0 4096 1024" viewBox="0 0 4096 1024" xmlns="http://www.w3.org/2000/svg"><path d="m511.97-.08c-282.88 0-512 229.12-512 512 0 224.32 144 414.72 344.64 483.84v-171.2c-155.52-19.2-275.84-152-275.84-312.64 0-134.08 83.84-248.64 201.92-294.08l29.12 115.84c-66.56 31.68-112.64 99.52-112.64 178.24 0 95.36 67.52 174.72 157.44 192.96v-505.6c12.8-1.6 25.92-2.56 39.36-2.56 174.08 0 315.2 141.12 315.2 315.2 0 160.64-120.32 293.44-275.84 312.64v191.68c28.8 5.12 58.56 7.68 88.64 7.68 282.88 0 512-229.12 512-512s-229.12-512-512-512z" fill="#0f4c81"/><circle cx="511.97" cy="511.92" fill="#0f4c81" r="39.38"/><path d="m1259.82 44.07h2836v981.73h-2836z" fill="none"/><g fill="#0f4c81"><path d="m1528.59 167.97c0 35.42-11.07 62.5-33.2 81.26-22.14 18.76-53.61 28.14-94.43 28.14h-29.94v117.05h-69.78v-329.09h105.12c39.92 0 70.27 8.59 91.05 25.77 20.78 17.19 31.18 42.81 31.18 76.87zm-157.57 52.23h22.96c21.46 0 37.51-4.24 48.17-12.72 10.65-8.48 15.98-20.82 15.98-37.03 0-16.35-4.47-28.44-13.39-36.24-8.93-7.8-22.92-11.71-41.98-11.71h-31.74z"/><path d="m1832.73 138.04c9.3 0 17.03.68 23.19 2.03l-5.18 64.38c-5.55-1.5-12.31-2.25-20.26-2.25-21.91 0-38.98 5.63-51.21 16.88s-18.35 27.01-18.35 47.27v128.08h-68.65v-251.67h52l10.13 42.32h3.38c7.8-14.1 18.35-25.47 31.63-34.1 13.26-8.63 27.71-12.94 43.32-12.94z"/><path d="m2122.46 398.92c-40.52 0-72.18-11.18-94.99-33.54s-34.21-54.02-34.21-94.99c0-42.17 10.54-74.77 31.63-97.81 21.08-23.03 50.23-34.55 87.45-34.55 35.57 0 63.25 10.13 83.06 30.39s29.71 48.25 29.71 83.96v33.31h-162.31c.75 19.51 6.53 34.74 17.33 45.69 10.8 10.96 25.96 16.43 45.47 16.43 15.15 0 29.49-1.58 42.99-4.73s27.61-8.18 42.32-15.08v53.12c-12.01 6-24.84 10.47-38.49 13.39-13.65 2.95-30.31 4.41-49.96 4.41zm-9.68-212.04c-14.56 0-25.96 4.61-34.21 13.84-8.26 9.23-12.98 22.32-14.18 39.28h96.34c-.3-16.96-4.73-30.05-13.28-39.28-8.56-9.22-20.12-13.84-34.67-13.84z"/><path d="m2563.45 319.69c0 25.81-8.97 45.47-26.9 58.98s-44.76 20.26-80.47 20.26c-18.31 0-33.92-1.24-46.82-3.71-12.91-2.48-24.99-6.11-36.24-10.92v-56.72c12.75 6 27.12 11.03 43.11 15.08 15.98 4.05 30.05 6.08 42.21 6.08 24.91 0 37.37-7.2 37.37-21.61 0-5.4-1.65-9.79-4.95-13.17s-9-7.2-17.11-11.48c-8.1-4.28-18.91-9.26-32.41-14.97-19.36-8.1-33.58-15.61-42.66-22.51s-15.68-14.82-19.81-23.75-6.19-19.92-6.19-32.98c0-22.36 8.67-39.65 26-51.89 17.33-12.23 41.9-18.35 73.72-18.35 30.31 0 59.8 6.6 88.46 19.81l-20.71 49.52c-12.61-5.4-24.39-9.83-35.34-13.28-10.96-3.45-22.14-5.18-33.54-5.18-20.26 0-30.39 5.48-30.39 16.43 0 6.15 3.26 11.48 9.79 15.98s20.82 11.18 42.88 20.03c19.66 7.96 34.06 15.38 43.22 22.28 9.15 6.9 15.91 14.86 20.26 23.86 4.35 9.03 6.52 19.76 6.52 32.21z"/><path d="m2837.88 398.92c-40.52 0-72.18-11.18-94.99-33.54s-34.21-54.02-34.21-94.99c0-42.17 10.54-74.77 31.63-97.81 21.08-23.03 50.23-34.55 87.45-34.55 35.57 0 63.25 10.13 83.06 30.39s29.71 48.25 29.71 83.96v33.31h-162.3c.75 19.51 6.53 34.74 17.33 45.69 10.8 10.96 25.96 16.43 45.47 16.43 15.16 0 29.49-1.58 42.99-4.73s27.61-8.18 42.32-15.08v53.12c-12.01 6-24.84 10.47-38.49 13.39-13.66 2.95-30.32 4.41-49.97 4.41zm-9.68-212.04c-14.56 0-25.96 4.61-34.21 13.84s-12.98 22.32-14.18 39.28h96.34c-.3-16.96-4.73-30.05-13.28-39.28-8.56-9.22-20.12-13.84-34.67-13.84z"/><path d="m3335.6 394.42h-68.65v-146.99c0-18.16-3.23-31.77-9.68-40.85s-16.73-13.62-30.84-13.62c-19.21 0-33.09 6.42-41.64 19.25s-12.83 34.1-12.83 63.82v118.4h-68.65v-251.67h52.45l9.23 32.19h3.83c7.65-12.16 18.19-21.35 31.63-27.57 13.43-6.23 28.7-9.34 45.81-9.34 29.26 0 51.47 7.92 66.63 23.75s22.73 38.68 22.73 68.54v164.09z"/><path d="m3615.43 398.92c-78.33 0-117.5-42.99-117.5-128.98 0-42.77 10.65-75.44 31.96-98.03 21.31-22.58 51.85-33.88 91.61-33.88 29.11 0 55.22 5.7 78.33 17.11l-20.26 53.12c-10.8-4.35-20.86-7.91-30.16-10.69-9.31-2.78-18.61-4.16-27.91-4.16-35.72 0-53.57 25.36-53.57 76.08 0 49.22 17.86 73.83 53.57 73.83 13.2 0 25.44-1.76 36.69-5.29 11.25-3.52 22.51-9.04 33.76-16.54v58.75c-11.11 7.06-22.32 11.93-33.65 14.63s-25.62 4.05-42.87 4.05z"/><path d="m3971.11 398.92c-40.52 0-72.18-11.18-94.99-33.54s-34.21-54.02-34.21-94.99c0-42.17 10.54-74.77 31.63-97.81 21.08-23.03 50.23-34.55 87.45-34.55 35.57 0 63.25 10.13 83.06 30.39s29.71 48.25 29.71 83.96v33.31h-162.3c.75 19.51 6.53 34.74 17.33 45.69 10.8 10.96 25.96 16.43 45.47 16.43 15.16 0 29.49-1.58 42.99-4.73s27.61-8.18 42.32-15.08v53.12c-12.01 6-24.84 10.47-38.49 13.39-13.66 2.95-30.31 4.41-49.97 4.41zm-9.68-212.04c-14.56 0-25.96 4.61-34.21 13.84s-12.98 22.32-14.18 39.28h96.34c-.3-16.96-4.73-30.05-13.28-39.28-8.56-9.22-20.11-13.84-34.67-13.84z"/><path d="m1568.65 959.42h-18.91l-72.26-253.91c-6-20.86-10.51-37.96-13.51-51.32-2.4 13.06-5.82 28.06-10.24 45.02-4.43 16.96-28.63 103.7-72.59 260.21h-19.36l-90.49-329.09h24.09l57.62 212.04c2.25 8.55 4.35 16.47 6.3 23.75s3.71 14.11 5.29 20.48c1.58 6.38 3 12.53 4.28 18.46 1.27 5.93 2.44 11.9 3.49 17.9 3.6-20.41 11.25-51.4 22.96-92.97l56.27-199.66h25.44l65.95 229.15c7.65 26.41 13.13 47.72 16.43 63.93 1.95-10.8 4.46-22.29 7.54-34.44 3.07-12.16 26.22-98.37 69.44-258.64h23.19z"/><path d="m1819.16 963.92c-35.57 0-63.29-10.95-83.17-32.86-19.89-21.91-29.83-52.6-29.83-92.07 0-39.02 9.6-70.27 28.81-93.75s45.09-35.23 77.66-35.23c28.81 0 51.55 10.06 68.2 30.16 16.66 20.11 24.99 47.42 24.99 81.94v18.01h-176.25c.3 33.62 8.14 59.28 23.52 76.98 15.38 17.71 37.4 26.56 66.07 26.56 13.96 0 26.22-.97 36.8-2.93 10.58-1.95 23.97-6.15 40.18-12.61v20.26c-13.81 6-26.56 10.09-38.27 12.27s-24.61 3.27-38.71 3.27zm-6.53-234.1c-23.56 0-42.47 7.77-56.72 23.3-14.26 15.53-22.59 37.93-24.99 67.19h151.27c0-28.36-6.15-50.53-18.46-66.52-12.31-15.98-29.34-23.97-51.1-23.97z"/><path d="m2084.97 710.01c34.21 0 59.99 10.77 77.32 32.3 17.33 21.54 26 53.01 26 94.43 0 40.67-9.12 72.03-27.35 94.09s-43.86 33.09-76.87 33.09c-17.41 0-33.09-3.6-47.04-10.8-13.96-7.2-24.99-17.41-33.09-30.61h-2.03l-6.3 36.92h-13.96v-350.26h22.28v88.01c0 13.21-.3 25.36-.9 36.46l-.68 19.13h1.58c9.3-14.71 20.52-25.51 33.65-32.41 13.13-6.89 28.93-10.35 47.39-10.35zm-.45 20.26c-28.81 0-49.45 8.25-61.9 24.76-12.46 16.51-18.68 43.75-18.68 81.71v3.83c0 36.92 6.49 63.4 19.47 79.46s33.2 24.09 60.66 24.09c26.71 0 46.82-9.34 60.33-28.02s20.26-45.28 20.26-79.8c-.01-70.69-26.72-106.03-80.14-106.03z"/><path d="m2579.67 874.56c0 27.46-10.09 49.22-30.28 65.28s-47.01 24.09-80.47 24.09c-40.22 0-71.06-4.43-92.51-13.28v-22.96c23.71 10.05 53.95 15.08 90.71 15.08 27.01 0 48.43-6.19 64.27-18.57 15.83-12.38 23.75-28.62 23.75-48.73 0-12.46-2.63-22.77-7.88-30.95s-13.81-15.64-25.66-22.4c-11.86-6.75-29.26-14.03-52.22-21.83-33.62-11.55-56.84-24.05-69.67-37.48s-19.25-31.32-19.25-53.69c0-24.61 9.64-44.68 28.93-60.21 19.28-15.53 44.08-23.3 74.39-23.3 30.91 0 59.95 5.85 87.11 17.56l-8.33 19.81c-27.31-11.4-53.43-17.11-78.33-17.11-24.31 0-43.67 5.63-58.08 16.88s-21.61 26.56-21.61 45.92c0 12.16 2.21 22.14 6.64 29.94 4.42 7.8 11.67 14.82 21.72 21.05s27.31 13.7 51.77 22.4c25.66 8.86 44.94 17.45 57.85 25.77 12.91 8.33 22.32 17.78 28.25 28.36 5.94 10.57 8.9 23.37 8.9 38.37z"/><path d="m2750.71 963.92c-35.56 0-63.29-10.95-83.17-32.86-19.89-21.91-29.83-52.6-29.83-92.07 0-39.02 9.6-70.27 28.81-93.75s45.09-35.23 77.66-35.23c28.81 0 51.55 10.06 68.21 30.16 16.66 20.11 24.99 47.42 24.99 81.94v18.01h-176.25c.3 33.62 8.14 59.28 23.52 76.98 15.38 17.71 37.4 26.56 66.07 26.56 13.96 0 26.22-.97 36.8-2.93 10.58-1.95 23.97-6.15 40.18-12.61v20.26c-13.81 6-26.56 10.09-38.27 12.27s-24.61 3.27-38.72 3.27zm-6.52-234.1c-23.56 0-42.47 7.77-56.72 23.3-14.26 15.53-22.59 37.93-24.99 67.19h151.27c0-28.36-6.15-50.53-18.46-66.52-12.31-15.98-29.35-23.97-51.1-23.97z"/><path d="m3009.55 710.01c10.35 0 21.46 1.05 33.31 3.15l-4.28 21.38c-10.21-2.55-20.79-3.83-31.74-3.83-20.86 0-37.97 8.86-51.32 26.56-13.36 17.71-20.03 40.07-20.03 67.08v135.06h-22.28v-244.67h18.91l2.25 44.12h1.58c10.05-18.01 20.78-30.65 32.19-37.93 11.39-7.27 25.2-10.92 41.41-10.92z"/><path d="m3154.48 959.42-94.54-244.68h22.96l63.25 166.35c8.4 21.31 14.71 39.92 18.91 55.82h1.35c6.15-20.41 12.46-39.17 18.91-56.27l63.25-165.9h22.96l-94.54 244.68z"/><path d="m3317.64 646.76c0-14.41 4.73-21.61 14.18-21.61 4.65 0 8.29 1.88 10.92 5.63 2.62 3.75 3.94 9.08 3.94 15.98 0 6.75-1.31 12.08-3.94 15.98s-6.27 5.85-10.92 5.85c-9.45.01-14.18-7.27-14.18-21.83zm25.44 312.66h-22.28v-244.68h22.28z"/><path d="m3531.01 963.92c-34.97 0-62.35-11.03-82.16-33.09s-29.71-52.82-29.71-92.29c0-40.52 10.28-72.07 30.84-94.65s48.7-33.88 84.41-33.88c21.16 0 41.42 3.68 60.78 11.03l-6.08 19.81c-21.16-7.05-39.54-10.58-55.15-10.58-30.01 0-52.75 9.27-68.2 27.8-15.46 18.54-23.18 45.21-23.18 80.02 0 33.02 7.73 58.86 23.18 77.55 15.45 18.68 37.06 28.02 64.83 28.02 22.21 0 42.84-3.97 61.9-11.93v20.71c-15.62 7.66-36.11 11.48-61.46 11.48z"/><path d="m3759.45 963.92c-35.56 0-63.29-10.95-83.17-32.86-19.89-21.91-29.83-52.6-29.83-92.07 0-39.02 9.6-70.27 28.81-93.75s45.09-35.23 77.66-35.23c28.81 0 51.55 10.06 68.21 30.16 16.66 20.11 24.99 47.42 24.99 81.94v18.01h-176.25c.3 33.62 8.14 59.28 23.52 76.98 15.38 17.71 37.4 26.56 66.07 26.56 13.96 0 26.22-.97 36.8-2.93 10.58-1.95 23.97-6.15 40.18-12.61v20.26c-13.81 6-26.56 10.09-38.27 12.27s-24.62 3.27-38.72 3.27zm-6.53-234.1c-23.56 0-42.47 7.77-56.72 23.3-14.26 15.53-22.59 37.93-24.99 67.19h151.27c0-28.36-6.15-50.53-18.46-66.52-12.31-15.98-29.34-23.97-51.1-23.97z"/><path d="m4073.66 895.72c0 21.91-8.33 38.76-24.99 50.54s-40.29 17.67-70.91 17.67c-32.72 0-58.68-5.03-77.88-15.08v-24.08c24.61 12.31 50.57 18.46 77.88 18.46 24.16 0 42.5-4.01 55.04-12.04 12.53-8.03 18.8-18.72 18.8-32.08 0-12.3-4.99-22.66-14.97-31.06s-26.38-16.66-49.18-24.76c-24.46-8.85-41.64-16.47-51.55-22.85-9.9-6.38-17.37-13.58-22.4-21.61s-7.54-17.82-7.54-29.38c0-18.31 7.69-32.79 23.07-43.44s36.88-15.98 64.49-15.98c26.41 0 51.47 4.95 75.18 14.86l-8.33 20.26c-24.01-9.9-46.3-14.86-66.85-14.86-19.96 0-35.79 3.3-47.5 9.9-11.71 6.61-17.56 15.76-17.56 27.46 0 12.76 4.54 22.96 13.62 30.61s26.82 16.21 53.24 25.66c22.06 7.96 38.12 15.12 48.17 21.5s17.59 13.62 22.62 21.72 7.55 17.63 7.55 28.58z"/></g></svg>
